<?xml version="1.0" encoding="UTF-8"?>
<svg version="1.1" xmlns="http://www.w3.org/2000/svg" width="1024" height="1024">
<path d="M0 0 C337.92 0 675.84 0 1024 0 C1024 337.92 1024 675.84 1024 1024 C686.08 1024 348.16 1024 0 1024 C0 686.08 0 348.16 0 0 Z " fill="#FEFEFE" transform="translate(0,0)"/>
<path d="M0 0 C107.91 0 215.82 0 327 0 C326 11 326 11 325 15 C324.2157666 15.09498779 323.4315332 15.18997559 322.62353516 15.2878418 C292.74110909 18.97446414 260.31744678 24.2639215 240 49 C226.32192247 67.65445127 223.0454625 89.13953469 219.1875 111.375 C218.74944746 113.86697952 218.31072054 116.35884059 217.87133789 118.85058594 C216.7777602 125.06249983 215.69259989 131.27584399 214.61108398 137.48986816 C213.52113494 143.75065218 212.4261523 150.01055734 211.33125305 156.27047729 C210.57385598 160.60211019 209.81849589 164.93406638 209.0690918 169.26708984 C208.93456604 170.04198761 208.80004028 170.81688538 208.66143799 171.61526489 C208.30578991 173.66423975 207.95154019 175.7134572 207.59741211 177.76269531 C207.14543736 180.21189236 206.65033216 182.59819221 206 185 C206.92619141 185.17414429 206.92619141 185.17414429 207.87109375 185.35180664 C213.66600842 186.47142914 219.32224151 187.83456247 225 189.4375 C274.33272992 203.691139 274.33272992 203.691139 325 211 C326.11761719 211.0721875 327.23523438 211.144375 328.38671875 211.21875 C351.49584972 211.92888975 379.7744242 205.93299915 398 191 C398.66 191 399.32 191 400 191 C398.40504387 205.89561661 396.5750309 220.76033693 394.73100448 235.62688398 C394.30254357 239.08410212 393.87571984 242.54152233 393.44880676 245.99893188 C392.09230712 256.98250276 390.73384159 267.96583014 389.37316602 278.94888449 C388.21900909 288.26510326 387.06687706 297.58156991 385.91796875 306.8984375 C385.83169008 307.59795092 385.7454114 308.29746433 385.65651822 309.01817513 C382.88589108 331.48968483 380.25552326 353.97439504 377.73810387 376.47567177 C376.64141349 386.24464745 375.43331873 395.99905306 374.1875 405.75 C373.96914851 407.47653058 373.751052 409.20309343 373.53320312 410.9296875 C373.02542919 414.95355641 372.5127247 418.97674748 372 423 C364.41 423 356.82 423 349 423 C348.57589844 421.15019531 348.15179687 419.30039062 347.71484375 417.39453125 C333.99024987 358.45113712 306.09762312 309.77284001 253.9375 276.359375 C250.92007055 274.48186334 247.85638661 272.70328901 244.75048828 270.9765625 C243.0286845 270.01600251 241.32463694 269.0238347 239.62109375 268.03125 C212.77446054 252.70876579 182.11405604 244.06107668 151.75 239.3125 C150.99509277 239.19293945 150.24018555 239.07337891 149.46240234 238.95019531 C136.459317 237.03756924 123.30845664 236.76069707 110.1875 236.75 C109.43153534 236.74932526 108.67557068 236.74865051 107.896698 236.74795532 C68.37712895 236.80342029 27.29641115 244.77129258 -2.8125 272.25 C-16.64427707 287.19949642 -23.75210229 306.84492379 -23.3046875 326.984375 C-22.09501926 353.03722988 -6.83918333 374.22067249 11.75 391.4375 C15.01616511 394.4123843 18.19276725 396.77487514 22 399 C22.22131592 397.70586182 22.44263184 396.41172363 22.6706543 395.07836914 C25.45651411 378.87879919 28.42361586 362.71403156 31.42048645 346.55247116 C32.08496233 342.96752535 32.74800712 339.3823149 33.41113281 335.79711914 C34.20341757 331.51402424 34.99579172 327.23094604 35.78878784 322.94798279 C37.9492873 311.27906553 40.10180542 299.60868847 42.25 287.9375 C42.54010807 286.36189551 42.830228 284.7862932 43.12036133 283.21069336 C43.74706441 279.80715777 44.37360115 276.4035916 45 273 C53.24062469 270.70910908 61.38710793 268.48636695 69.875 267.3125 C71.13969116 267.13207153 71.13969116 267.13207153 72.42993164 266.94799805 C80.61079611 265.83225086 88.75023978 265.23523852 97 265 C97.75732422 264.97276855 98.51464844 264.94553711 99.29492188 264.91748047 C129.43410023 263.93306606 160.49722898 268.01765844 189 278 C187.68487289 285.97967031 186.3179694 293.94842708 184.8984375 301.91015625 C184.60248436 303.57320549 184.60248436 303.57320549 184.30055237 305.26985168 C183.65972437 308.86758437 183.01753613 312.465072 182.375 316.0625 C182.04219528 317.92736053 182.04219528 317.92736053 181.70266724 319.82989502 C178.6887664 336.70736147 175.61800105 353.57277252 172.45980835 370.42379761 C169.63895288 385.47957182 166.89712558 400.54881866 164.1875 415.625 C163.99832001 416.67717712 163.80914001 417.72935425 163.61422729 418.81341553 C162.72746449 423.74783164 161.84287918 428.68262232 160.96240234 433.61816406 C160.33928506 437.11096412 159.70922285 440.60238285 159.07275391 444.09277344 C158.79456478 445.63215575 158.51640531 447.17154343 158.23828125 448.7109375 C158.04772408 449.74246445 158.04772408 449.74246445 157.85331726 450.79483032 C157.28637836 453.95253147 157 456.77140311 157 460 C157.8979126 460.32572998 158.7958252 460.65145996 159.72094727 460.98706055 C306.73658244 514.43935277 306.73658244 514.43935277 352 573 C352.99386719 574.17755859 352.99386719 574.17755859 354.0078125 575.37890625 C359.91287302 582.40708612 364.53214149 590.01189014 369 598 C369.34562988 598.61053223 369.69125977 599.22106445 370.04736328 599.85009766 C393.26111751 641.43909003 395.62114345 694.82857262 388 741 C387.88785156 741.72848145 387.77570312 742.45696289 387.66015625 743.20751953 C381.26248469 784.58505274 364.34175912 827.25761173 337.33300781 859.40673828 C336.03161143 860.96221681 334.76065777 862.5387191 333.4921875 864.12109375 C326.80501753 872.32060059 319.39228415 879.81839661 311.9375 887.3125 C311.17731064 888.0805899 311.17731064 888.0805899 310.40176392 888.86419678 C303.60829257 895.71217846 296.59409735 902.0297591 289 908 C288.39341553 908.48621826 287.78683105 908.97243652 287.16186523 909.47338867 C274.75358991 919.39571609 261.47792563 927.94115952 247.77490234 935.95166016 C246.13575934 936.91981422 244.51423077 937.91762603 242.89453125 938.91796875 C214.70269658 955.90311138 182.65191964 965.78714599 151 974 C149.54968384 974.38913574 149.54968384 974.38913574 148.07006836 974.78613281 C63.07461106 997.04736341 -40.09304248 989.68870456 -156.1640625 948.21484375 C-169.65876602 942.9987455 -182.644871 938.96267865 -197 937 C-198.01731201 936.85183838 -198.01731201 936.85183838 -199.05517578 936.70068359 C-221.75196041 933.57411405 -245.08949429 937.44748805 -263.7734375 951.31640625 C-267.07095805 953.98622619 -270.04803927 956.96121689 -273 960 C-273.1991897 950.0129863 -272.62098674 940.30755253 -271.57421875 930.375 C-271.4238438 928.89752392 -271.27410459 927.41998302 -271.12495422 925.94238281 C-270.73278395 922.07360748 -270.33233733 918.20573502 -269.92993164 914.3380127 C-269.53242773 910.50448176 -269.14240862 906.67019163 -268.75195312 902.8359375 C-268.21315645 897.55156254 -267.67211885 892.26742692 -267.12789345 886.98360825 C-265.06395846 866.94393749 -263.04479587 846.89946659 -261.18359375 826.83984375 C-260.41611778 818.76811368 -259.50642539 810.72025345 -258.55859375 802.66796875 C-257.14333968 790.59068645 -255.96629821 778.50024901 -254.86569214 766.39074707 C-253.38691234 750.15765955 -251.85679758 733.93741491 -249.9375 717.75 C-248.13585326 702.55454703 -246.61631481 687.33849022 -245.16056824 672.10623169 C-244.93173618 669.71283377 -244.70175963 667.31954777 -244.47167969 664.92626953 C-244.2247975 662.35808308 -243.98035482 659.78972634 -243.74035645 657.22088623 C-243.47925109 654.42681989 -243.2126646 651.63331837 -242.9453125 648.83984375 C-242.86554169 647.96985245 -242.78577087 647.09986115 -242.70358276 646.20350647 C-242.11350523 640.11350523 -242.11350523 640.11350523 -241 639 C-238.32941149 638.85884839 -235.67567762 638.95752893 -233 639 C-232.82460693 640.12978271 -232.64921387 641.25956543 -232.46850586 642.42358398 C-226.02610634 686.43328411 -226.02610634 686.43328411 -214.85058594 729.41015625 C-213.97355726 732.08051221 -213.12470036 734.75923421 -212.27697754 737.43901062 C-195.79288042 789.37976965 -169.97753231 837.22015634 -126 871 C-125.43941895 871.4316748 -124.87883789 871.86334961 -124.30126953 872.30810547 C-115.25107935 879.23404563 -105.92733597 885.40794085 -96 891 C-95.34306152 891.37366699 -94.68612305 891.74733398 -94.00927734 892.13232422 C-61.70429531 910.36461853 -24.6396419 920.34375663 12 925 C12.68199463 925.09498779 13.36398926 925.18997559 14.06665039 925.2878418 C23.10198303 926.38899543 32.22549121 926.19874424 41.3125 926.1875 C42.65683105 926.18659363 42.65683105 926.18659363 44.02832031 926.18566895 C57.12485401 926.16165473 70.01972434 925.8790642 83 924 C83.92522461 923.87641113 84.85044922 923.75282227 85.80371094 923.62548828 C124.18530875 918.41917158 161.9160461 903.68199171 192 879 C192.58168945 878.5265918 193.16337891 878.05318359 193.76269531 877.56542969 C230.36010162 847.61131269 253.07317932 801.80263706 257.79345703 754.77832031 C258.84599248 740.62010114 258.97343602 725.93267165 256 712 C255.74347656 710.73671875 255.48695313 709.4734375 255.22265625 708.171875 C246.92662871 670.06937262 218.41192384 642.93635678 186.74755859 622.54980469 C149.48670725 599.0039641 109.34388878 580.44727855 69.05078125 562.77929688 C65.52867433 561.23420223 62.01306735 559.67493283 58.5 558.109375 C46.2716787 552.67010199 33.96371955 547.43242821 21.625 542.25 C-86.611841 496.7817323 -86.611841 496.7817323 -116 469 C-116.82242188 468.24203125 -117.64484375 467.4840625 -118.4921875 466.703125 C-142.61081636 443.71153487 -155.10058402 410.3026544 -156.11035156 377.40478516 C-156.5759191 347.02058541 -156.5759191 347.02058541 -154 333 C-153.84934082 332.14599609 -153.69868164 331.29199219 -153.54345703 330.41210938 C-147.15694309 295.19732547 -131.33452228 265.20922016 -106 240 C-105.17113281 239.17113281 -104.34226562 238.34226562 -103.48828125 237.48828125 C-67.08181521 203.05975564 -15.85051991 188.85800182 32.375 181.8125 C33.51565918 181.64532471 34.65631836 181.47814941 35.83154297 181.3059082 C43.8716545 180.17848034 51.89677024 179.48625505 60 179 C60.09909668 178.40952881 60.19819336 177.81905762 60.30029297 177.21069336 C63.85048459 156.1547226 67.67881811 135.15058379 71.52099609 114.14624023 C71.73483444 112.97557007 71.94867279 111.8048999 72.16899109 110.59875488 C72.57065624 108.40035694 72.97311003 106.20210287 73.37654114 104.00402832 C78.6053292 79.13068252 78.6053292 79.13068252 73 55 C72.57589844 54.15050781 72.15179688 53.30101562 71.71484375 52.42578125 C61.8595974 34.49966463 43.49075083 25.86519328 24.63671875 20.26953125 C15.85983634 17.78771154 6.91391831 15.91664034 -2 14 C-1.85866501 12.22880197 -1.71176792 10.45804713 -1.5625 8.6875 C-1.48128906 7.70136719 -1.40007812 6.71523438 -1.31640625 5.69921875 C-1 3 -1 3 0 0 Z " fill="#0D2B87" transform="translate(375,19)"/>
<path d="M0 0 C11.22863446 4.11580699 22.29956614 8.52684177 33.3125 13.1875 C34.11325958 13.52537537 34.91401917 13.86325073 35.73904419 14.21136475 C56.2728981 22.88191168 76.65030737 31.90719545 97 41 C97.81595642 41.36448242 98.63191284 41.72896484 99.47259521 42.10449219 C104.69325764 44.43758459 109.91041067 46.77836865 115.125 49.125 C115.78942108 49.42335754 116.45384216 49.72171509 117.13839722 50.02911377 C118.97099897 50.8528373 120.80195809 51.68021249 122.6328125 52.5078125 C123.65262207 52.96816895 124.67243164 53.42852539 125.72314453 53.90283203 C128 55 128 55 129 56 C129.59033536 63.05348975 127.78598643 69.81186449 126.375 76.6875 C125.82150326 79.45574157 125.27654621 82.22561343 124.734375 84.99609375 C124.59307159 85.7180191 124.45176819 86.43994446 124.30618286 87.18374634 C122.77447627 95.06912683 121.37044613 102.97534122 120.02618408 110.89468384 C119.76163679 112.44781755 119.49376664 114.00038945 119.22235107 115.55233765 C115.73951868 134.56216133 115.73951868 134.56216133 122.0625 152.1875 C128.16109611 158.9087756 137.97022435 161.57582379 146.74911499 162.1933918 C149.8718275 162.277181 152.98944013 162.30130164 156.11328125 162.30297852 C157.29317123 162.31141785 158.47306122 162.31985718 159.68870544 162.32855225 C163.56330799 162.35420957 167.43783461 162.36643868 171.3125 162.37890625 C174.01010624 162.39390573 176.70768768 162.41212546 179.40527344 162.43040466 C185.76446408 162.47189478 192.12366249 162.50439184 198.48292351 162.53287882 C209.8949945 162.58406861 221.30700021 162.64593521 232.71895695 162.71821922 C236.06618145 162.73906886 239.41338509 162.75737118 242.76065063 162.77020454 C246.48109311 162.78479982 250.20146607 162.80507711 253.921875 162.82641602 C255.03557968 162.82902939 256.14928436 162.83164276 257.29673767 162.83433533 C258.80645897 162.84468307 258.80645897 162.84468307 260.34667969 162.85523987 C261.66620636 162.86102224 261.66620636 162.86102224 263.01239014 162.86692142 C265 163 265 163 266 164 C266.25813703 168.07639583 266.18525628 172.16643362 266.1875 176.25 C266.19974609 177.37664062 266.21199219 178.50328125 266.22460938 179.6640625 C266.22654297 180.79070312 266.22847656 181.91734375 266.23046875 183.078125 C266.23457764 184.09293945 266.23868652 185.10775391 266.24291992 186.15332031 C265.88587633 191.80716841 264.86142077 197.40076499 264 203 C140.25 203 16.5 203 -111 203 C-108.75 182.75 -108.75 182.75 -107 176 C-105.90498169 175.84180786 -105.90498169 175.84180786 -104.7878418 175.68041992 C-101.41999763 175.18979177 -98.05378548 174.68870655 -94.6875 174.1875 C-92.96563477 173.9390332 -92.96563477 173.9390332 -91.20898438 173.68554688 C-74.52849257 171.18111043 -58.37719755 166.65311369 -45 156 C-44.16597656 155.37351562 -43.33195312 154.74703125 -42.47265625 154.1015625 C-27.90656429 141.7215349 -22.48222458 121.10958687 -19.1875 103.125 C-18.93406897 101.77405008 -18.67997987 100.42322348 -18.42529297 99.07250977 C-17.74612548 95.45812133 -17.07783769 91.84179753 -16.41143799 88.22503662 C-15.86607899 85.27576169 -15.31268949 82.32801877 -14.75926208 79.38024902 C-12.01380269 64.74552316 -9.35026335 50.09803596 -6.8125 35.42578125 C-6.62972504 34.36951035 -6.44695007 33.31323944 -6.25863647 32.22496033 C-5.3588871 27.01804828 -4.46434484 21.81030068 -3.57666016 16.60131836 C-3.25165576 14.70816574 -2.92662457 12.81501772 -2.6015625 10.921875 C-2.45396484 10.04666702 -2.30636719 9.17145905 -2.15429688 8.26972961 C-1.11298441 2.22596882 -1.11298441 2.22596882 0 0 Z " fill="#FE8622" transform="translate(368,581)"/>
<path d="M0 0 C0.33 0.66 0.66 1.32 1 2 C0.07885742 4.14453125 0.07885742 4.14453125 -1.39453125 6.8125 C-2.20180664 8.28783203 -2.20180664 8.28783203 -3.02539062 9.79296875 C-3.61513672 10.85128906 -4.20488281 11.90960938 -4.8125 13 C-5.41126953 14.08925781 -6.01003906 15.17851562 -6.62695312 16.30078125 C-8.40948541 19.53863604 -10.20279534 22.77027068 -12 26 C-12.87890935 27.58333161 -13.75781597 29.16666474 -14.63671875 30.75 C-15.82050063 32.88017888 -17.00541347 35.00969927 -18.19311523 37.13769531 C-22.20575389 44.33653435 -26.12417264 51.58570582 -30.04296875 58.8359375 C-34.17024038 66.47187331 -38.3196592 74.09538693 -42.48217773 81.7121582 C-45.06171933 86.43561366 -47.63100505 91.16426105 -50.18359375 95.90234375 C-55.44248173 105.65934026 -60.75325538 115.3747333 -66.25 125 C-71.97382098 135.03341788 -77.40586369 145.20900041 -82.80154419 155.42095947 C-87.22617608 163.79509499 -91.68572189 172.14185 -96.32495117 180.3996582 C-99.96343817 186.89020241 -103.48203886 193.44350175 -107 200 C-111.35586876 208.11558548 -115.75230122 216.20349801 -120.24658203 224.24316406 C-124.23895091 231.39798186 -128.13446243 238.60439405 -132.0300293 245.81225586 C-135.79568861 252.7794744 -139.57849266 259.73704509 -143.375 266.6875 C-147.61085368 274.44381262 -151.82143549 282.21267523 -156 290 C-163.92 290 -171.84 290 -180 290 C-179.41983264 283.61815906 -178.8601745 277.60794943 -177.80859375 271.3515625 C-175.24028348 255.38089486 -173.52996057 239.75588457 -173.625 223.5625 C-173.62717529 222.78148926 -173.62935059 222.00047852 -173.6315918 221.19580078 C-173.66569169 213.93176643 -173.80580558 206.74751755 -174.76953125 199.53515625 C-176.35586581 187.2480023 -176.35586581 187.2480023 -173.68798828 182.82470703 C-170.19099901 178.47561903 -166.09761197 174.93432892 -161.75830078 171.45117188 C-159.73694314 169.78289226 -158.07901694 167.97760983 -156.4375 165.9375 C-152.61304896 161.39782695 -148.33494017 157.31068735 -144.11962891 153.13916016 C-140.50256548 149.54530162 -137.0634744 145.88263935 -133.76953125 141.98828125 C-131.00275611 138.87947651 -128.01404421 135.99361177 -125.05273438 133.07226562 C-121.75908448 129.80587352 -118.68495522 126.42079478 -115.67578125 122.89453125 C-113.30597931 120.21538454 -110.75978288 117.73358347 -108.1875 115.25 C-106.31224778 113.32116914 -104.56470999 111.35136186 -102.8125 109.3125 C-98.04910191 103.82799047 -92.84861182 98.80081632 -87.671875 93.7109375 C-83.4421151 89.52433842 -79.40237426 85.25960311 -75.5234375 80.74609375 C-73.61397688 78.55755811 -71.58409373 76.52188197 -69.5 74.5 C-66.7755846 71.8122154 -64.16739688 69.10183137 -61.6875 66.1875 C-58.14192054 62.04685826 -54.28698588 58.25886 -50.41186523 54.43139648 C-46.98923096 51.03459747 -43.76731274 47.5324742 -40.640625 43.859375 C-38.83852211 41.81699172 -36.94061053 39.91098289 -35 38 C-31.82469466 34.86719397 -28.86798637 31.61968396 -25.95703125 28.2421875 C-17.55334259 18.61400928 -8.70483603 9.35527687 0 0 Z " fill="#FE8622" transform="translate(963,494)"/>
<path d="M0 0 C13 0 13 0 15.95703125 2.44335938 C16.56933594 3.56548828 17.18164062 4.68761719 17.8125 5.84375 C18.15958008 6.44626587 18.50666016 7.04878174 18.86425781 7.66955566 C19.95738266 9.59057641 20.9780601 11.540354 22 13.5 C22.71289258 14.78379019 23.43031215 16.06507747 24.15234375 17.34375 C25.52607777 19.78878798 26.87512379 22.24468702 28.203125 24.71484375 C30.32056999 28.58608557 32.60526833 32.29564944 35 36 C39.38097216 32.23591891 41.92674213 27.41768747 44.8125 22.5 C45.3502002 21.60958008 45.88790039 20.71916016 46.44189453 19.80175781 C48.75949487 15.94212379 51.01548984 12.13184222 52.84765625 8.015625 C54.375 4.75 54.375 4.75 58 0 C62.62 0 67.24 0 72 0 C72 20.79 72 41.58 72 63 C67.38 63 62.76 63 58 63 C57.67 51.78 57.34 40.56 57 29 C51.86821922 36.71740606 51.86821922 36.71740606 46.73901367 44.43652344 C46.09681885 45.40106445 45.45462402 46.36560547 44.79296875 47.359375 C44.1383667 48.34389648 43.48376465 49.32841797 42.80932617 50.34277344 C41.91370972 51.65810059 41.91370972 51.65810059 41 53 C40.52989502 53.77633789 40.05979004 54.55267578 39.57543945 55.35253906 C38 57 38 57 35.55737305 57.5715332 C31.86411676 56.74614772 31.0968997 55.00310616 29.08203125 51.85546875 C28.38529297 50.78619141 27.68855469 49.71691406 26.97070312 48.61523438 C26.2508855 47.47291865 25.53148878 46.3303376 24.8125 45.1875 C24.08298968 44.0556017 23.35188636 42.92472839 22.61914062 41.79492188 C21.27704762 39.71623829 19.94209162 37.63291797 18.61645508 35.54370117 C17.43310579 33.68154799 16.22385645 31.83578468 15 30 C14.67 40.89 14.34 51.78 14 63 C9.38 63 4.76 63 0 63 C0 42.21 0 21.42 0 0 Z " fill="#102D88" transform="translate(801,19)"/>
<path d="M0 0 C18.15 0 36.3 0 55 0 C55 4.29 55 8.58 55 13 C48.4 13 41.8 13 35 13 C35 29.5 35 46 35 63 C30.38 63 25.76 63 21 63 C21 46.5 21 30 21 13 C14.07 13 7.14 13 0 13 C0 8.71 0 4.42 0 0 Z " fill="#0D2B87" transform="translate(735,19)"/>
<path d="M0 0 C4.62 0 9.24 0 14 0 C14 20.79 14 41.58 14 63 C9.38 63 4.76 63 0 63 C0 51.45 0 39.9 0 28 C0.33 28 0.66 28 1 28 C1 38.89 1 49.78 1 61 C4.63 61 8.26 61 12 61 C12 41.53 12 22.06 12 2 C8.04 2 4.08 2 0 2 C0 1.34 0 0.68 0 0 Z " fill="#283C8D" transform="translate(859,19)"/>
<path d="M0 0 C18.15 0 36.3 0 55 0 C55 3.96 55 7.92 55 12 C54.67 12 54.34 12 54 12 C54 8.7 54 5.4 54 2 C36.84 2 19.68 2 2 2 C2 5.63 2 9.26 2 13 C1.34 13 0.68 13 0 13 C0 8.71 0 4.42 0 0 Z " fill="#314493" transform="translate(735,19)"/>
<path d="M0 0 C0.33 0.66 0.66 1.32 1 2 C-0.07674702 4.28258633 -1.19546116 6.4356434 -2.4375 8.625 C-2.77587891 9.23601562 -3.11425781 9.84703125 -3.46289062 10.4765625 C-4.30146192 11.988353 -5.14982577 13.49470399 -6 15 C-7.35462193 10.9361342 -6.5066082 8.97196708 -5 5 C-2.375 2.0625 -2.375 2.0625 0 0 Z " fill="#F58C34" transform="translate(963,494)"/>
<path d="M0 0 C0.66 0 1.32 0 2 0 C0.34908222 4.29238623 -2.73754566 6.8793915 -6 10 C-6.66 9.67 -7.32 9.34 -8 9 C-6.85459775 7.68712379 -5.70866567 6.37470979 -4.5625 5.0625 C-3.92441406 4.33160156 -3.28632812 3.60070312 -2.62890625 2.84765625 C-1.77458541 1.87860647 -0.91348825 0.91348825 0 0 Z " fill="#F98A2C" transform="translate(890,572)"/>
<path d="M0 0 C0.99 0.33 1.98 0.66 3 1 C0.69 3.31 -1.62 5.62 -4 8 C-4.33 7.01 -4.66 6.02 -5 5 C-3.35 3.35 -1.7 1.7 0 0 Z " fill="#F98B30" transform="translate(947,511)"/>
<path d="M0 0 C0.99 0.33 1.98 0.66 3 1 C1.02 2.98 -0.96 4.96 -3 7 C-3.99 6.67 -4.98 6.34 -6 6 C-4.02 4.02 -2.04 2.04 0 0 Z " fill="#F88F35" transform="translate(905,556)"/>
<path d="M0 0 C0.99 0.33 1.98 0.66 3 1 C0.03 3.475 0.03 3.475 -3 6 C-3.66 5.67 -4.32 5.34 -5 5 C-3.35 3.35 -1.7 1.7 0 0 Z " fill="#F98D33" transform="translate(923,537)"/>
<path d="M0 0 C0.66 0.33 1.32 0.66 2 1 C0.125 5.75 0.125 5.75 -1 8 C-1.66 8 -2.32 8 -3 8 C-1.125 2.25 -1.125 2.25 0 0 Z " fill="#22398B" transform="translate(236,304)"/>
</svg>
